# xmcd
#
# Track frame offsets:
#	150
#	22428
#	45810
#	62201
#	81889
#	105280
#	121104
#	152123
#	172998
#	179220
#	213601
#	228472
#	248675
#	266399
#	291730
#	302047
#	324014
#
# Disc length: 4602 seconds
#
# Revision: 4
# Processed by: cddbd v1.5.2PL0 Copyright (c) Steve Scherf et al.
# Submitted via: EasyCDDAExtractor 11.9.9.666
#
DISCID=eb11f811
DTITLE=Various Artist - Terrorizer - Fear Candy 13
DYEAR=2005
DGENRE=Metal
TTITLE0=Strapping Young Lad - Love?
TTITLE1=High on Fire - Cometh Down Hessian
TTITLE2=Six Feet Under - Shadow Of The Reaper
TTITLE3=Primordial - The Gathering Wilderness
TTITLE4=Crowbar - Coming Down
TTITLE5=Soilwork - Stabbing The Drama
TTITLE6=Jesu - We All Faulter
TTITLE7=Blood Red Throne - Mephitication
TTITLE8=Rotten Sound - East Western Cancer
TTITLE9=Communic - Conspiracy In Mind
TTITLE10=Comeback Kid - Wake The Dead
TTITLE11=Neaera - The World Devourers
TTITLE12=Diamanthian - Fatal Eclipse Of The Soul
TTITLE13=Disiplin - Orthodox Devil Worship
TTITLE14=The Eschaton Creed - Rage In Ecstacy
TTITLE15=Helgrind - Prophecy Of Destruction
TTITLE16=12TonMethod - Liszt
EXTD=
EXTT0=
EXTT1=
EXTT2=
EXTT3=
EXTT4=
EXTT5=
EXTT6=
EXTT7=
EXTT8=
EXTT9=
EXTT10=
EXTT11=
EXTT12=
EXTT13=
EXTT14=
EXTT15=
EXTT16=
PLAYORDER=
